<svg width="24" height="24" viewBox="0 0 24 24" fill="none" xmlns="http://www.w3.org/2000/svg">
<g filter="url(#filter0_dd)">
<path d="M20 12C20 11.0625 19.6875 10.1562 19.1875 9.40625C19.0625 9.21875 18.7812 9.1875 18.625 9.34375L18.0938 9.90625C18 9.96875 17.9688 10.0625 17.9688 10.1562C17.9688 10.2188 18 10.2812 18.0312 10.3438C18.3125 10.8438 18.5 11.4062 18.5 12C18.5 13.8125 17.0312 15.25 15.25 15.25H8.25L10 13.5625C10.1562 13.4062 10.1562 13.1875 10 13.0312L9.46875 12.5C9.3125 12.3438 9.09375 12.3438 8.9375 12.5L5.6875 15.75C5.53125 15.9062 5.53125 16.125 5.6875 16.2812L8.9375 19.5312C9.09375 19.6875 9.3125 19.6875 9.46875 19.5312L10 19C10.1562 18.8438 10.1562 18.625 10 18.4688L8.25 16.75H15.25C17.8438 16.75 20 14.625 20 12ZM5.9375 13.6875C5.65625 13.1875 5.5 12.625 5.5 12C5.5 10.2188 6.9375 8.75 8.75 8.75H15.7188L13.9688 10.4688C13.8125 10.625 13.8125 10.8438 13.9688 11L14.5 11.5312C14.6562 11.6875 14.875 11.6875 15.0312 11.5312L18.2812 8.28125C18.4375 8.125 18.4375 7.90625 18.2812 7.75L15.0312 4.5C14.875 4.34375 14.6562 4.34375 14.5 4.5L13.9688 5.03125C13.8125 5.1875 13.8125 5.40625 13.9688 5.5625L15.7188 7.25H8.75C6.125 7.25 4 9.40625 4 12C4 12.9688 4.28125 13.875 4.78125 14.625C4.90625 14.8125 5.1875 14.8438 5.34375 14.6875L5.875 14.125C5.96875 14.0625 6 13.9688 6 13.875C6 13.8125 5.96875 13.75 5.9375 13.6875Z" fill="url(#paint0_linear)"/>
</g>
<defs>
<filter id="filter0_dd" x="-1" y="-2" width="26" height="28" filterUnits="userSpaceOnUse" color-interpolation-filters="sRGB">
<feFlood flood-opacity="0" result="BackgroundImageFix"/>
<feColorMatrix in="SourceAlpha" type="matrix" values="0 0 0 0 0 0 0 0 0 0 0 0 0 0 0 0 0 0 127 0"/>
<feOffset dy="1"/>
<feGaussianBlur stdDeviation="0.5"/>
<feColorMatrix type="matrix" values="0 0 0 0 0.554366 0 0 0 0 0.566197 0 0 0 0 0.605634 0 0 0 1 0"/>
<feBlend mode="normal" in2="BackgroundImageFix" result="effect1_dropShadow"/>
<feColorMatrix in="SourceAlpha" type="matrix" values="0 0 0 0 0 0 0 0 0 0 0 0 0 0 0 0 0 0 127 0"/>
<feOffset dy="-1"/>
<feGaussianBlur stdDeviation="0.5"/>
<feColorMatrix type="matrix" values="0 0 0 0 0.356808 0 0 0 0 0.367512 0 0 0 0 0.403192 0 0 0 1 0"/>
<feBlend mode="normal" in2="effect1_dropShadow" result="effect2_dropShadow"/>
<feBlend mode="normal" in="SourceGraphic" in2="effect2_dropShadow" result="shape"/>
</filter>
<linearGradient id="paint0_linear" x1="12" y1="4" x2="12" y2="20" gradientUnits="userSpaceOnUse">
<stop stop-color="#FF9900"/>
<stop offset="1" stop-color="#FF7A00"/>
</linearGradient>
</defs>
</svg>
