<svg width="20" height="21" viewBox="0 0 20 21" fill="none" xmlns="http://www.w3.org/2000/svg">
<path fill-rule="evenodd" clip-rule="evenodd" d="M10.0002 5.03297C11.4302 3.36025 14.079 2.67817 16.224 4.13977C17.3615 4.91929 18.0765 6.23473 18.1252 7.61513C18.2309 10.7657 15.444 13.291 11.1784 17.1561L11.089 17.2373C10.4715 17.8057 9.52086 17.8057 8.90336 17.2454L8.82211 17.1724L8.77303 17.1278C4.53506 13.2797 1.76192 10.7617 1.87523 7.62325C1.92398 6.23473 2.63898 4.91929 3.77648 4.13977C5.92148 2.67005 8.57023 3.36025 10.0002 5.03297ZM10.0002 16.0437L10.0815 15.9625C13.949 12.4628 16.5002 10.1486 16.5002 7.80189C16.5002 6.17789 15.2815 4.95989 13.6565 4.95989C12.4052 4.95989 11.1865 5.76377 10.764 6.87621H9.24461C8.81398 5.76377 7.59523 4.95989 6.34398 4.95989C4.71898 4.95989 3.50023 6.17789 3.50023 7.80189C3.50023 10.1486 6.05148 12.4628 9.91898 15.9625L10.0002 16.0437Z" fill="black"/>
</svg>
