<svg width="25" height="25" viewBox="0 0 25 25" fill="none" xmlns="http://www.w3.org/2000/svg">
<g id="close_24px">
<path id="icon/navigation/close_24px" d="M18.8 6.20999C18.6131 6.02273 18.3595 5.9175 18.095 5.9175C17.8305 5.9175 17.5768 6.02273 17.39 6.20999L12.5 11.09L7.60997 6.19999C7.42314 6.01273 7.16949 5.9075 6.90497 5.9075C6.64045 5.9075 6.3868 6.01273 6.19997 6.19999C5.80997 6.58999 5.80997 7.21999 6.19997 7.60999L11.09 12.5L6.19997 17.39C5.80997 17.78 5.80997 18.41 6.19997 18.8C6.58997 19.19 7.21997 19.19 7.60997 18.8L12.5 13.91L17.39 18.8C17.78 19.19 18.41 19.19 18.8 18.8C19.19 18.41 19.19 17.78 18.8 17.39L13.91 12.5L18.8 7.60999C19.18 7.22999 19.18 6.58999 18.8 6.20999Z" fill="#E22F2F"/>
</g>
</svg>
