<svg width="441" height="26" viewBox="0 0 441 26" fill="none" xmlns="http://www.w3.org/2000/svg">
<rect y="3" width="1" height="20" fill="#E1E1E1"/>
<rect x="11" y="10" width="1" height="6" fill="#E1E1E1"/>
<rect x="22" y="10" width="1" height="6" fill="#E1E1E1"/>
<rect x="33" y="10" width="1" height="6" fill="#E1E1E1"/>
<rect x="44" y="10" width="1" height="6" fill="#E1E1E1"/>
<rect x="55" y="3" width="1" height="20" fill="#E1E1E1"/>
<rect x="66" y="10" width="1" height="6" fill="#E1E1E1"/>
<rect x="77" y="10" width="1" height="6" fill="#E1E1E1"/>
<rect x="88" y="10" width="1" height="6" fill="#E1E1E1"/>
<rect x="99" y="10" width="1" height="6" fill="#E1E1E1"/>
<rect x="110" y="3" width="1" height="20" fill="#E1E1E1"/>
<rect x="121" y="10" width="1" height="6" fill="#E1E1E1"/>
<rect x="132" y="10" width="1" height="6" fill="#E1E1E1"/>
<rect x="143" y="10" width="1" height="6" fill="#E1E1E1"/>
<rect x="154" y="10" width="1" height="6" fill="#E1E1E1"/>
<rect x="165" y="3" width="1" height="20" fill="#E1E1E1"/>
<rect x="176" y="10" width="1" height="6" fill="#E1E1E1"/>
<rect x="187" y="10" width="1" height="6" fill="#E1E1E1"/>
<rect x="198" y="10" width="1" height="6" fill="#E1E1E1"/>
<rect x="209" y="10" width="1" height="6" fill="#E1E1E1"/>
<rect x="220" y="3" width="1" height="20" fill="#E1E1E1"/>
<rect x="231" y="10" width="1" height="6" fill="#E1E1E1"/>
<rect x="242" y="10" width="1" height="6" fill="#E1E1E1"/>
<rect x="253" y="10" width="1" height="6" fill="#E1E1E1"/>
<rect x="264" y="10" width="1" height="6" fill="#E1E1E1"/>
<rect x="275" y="3" width="1" height="20" fill="#E1E1E1"/>
<rect x="286" y="10" width="1" height="6" fill="#E1E1E1"/>
<rect x="297" y="10" width="1" height="6" fill="#E1E1E1"/>
<rect x="308" y="10" width="1" height="6" fill="#E1E1E1"/>
<rect x="319" y="10" width="1" height="6" fill="#E1E1E1"/>
<rect x="330" y="3" width="1" height="20" fill="#E1E1E1"/>
<rect x="341" y="10" width="1" height="6" fill="#E1E1E1"/>
<rect x="352" y="10" width="1" height="6" fill="#E1E1E1"/>
<rect x="363" y="10" width="1" height="6" fill="#E1E1E1"/>
<rect x="374" y="10" width="1" height="6" fill="#E1E1E1"/>
<rect x="385" y="3" width="1" height="20" fill="#E1E1E1"/>
<rect x="396" y="10" width="1" height="6" fill="#E1E1E1"/>
<rect x="407" y="10" width="1" height="6" fill="#E1E1E1"/>
<rect x="418" y="10" width="1" height="6" fill="#E1E1E1"/>
<rect x="429" y="10" width="1" height="6" fill="#E1E1E1"/>
<rect x="440" y="3" width="1" height="20" fill="#E1E1E1"/>
</svg>
