<svg width="26" height="26" viewBox="0 0 26 26" fill="none" xmlns="http://www.w3.org/2000/svg">
<g id="favicon">
<rect x="1" y="1" width="24" height="24" rx="4" fill="white"/>
<path id="Union" fill-rule="evenodd" clip-rule="evenodd" d="M2.41007 13.1323L12.9634 2.57903C14.2123 1.33008 16.2373 1.33008 17.4862 2.57903L23.5167 8.60948C24.7656 9.85843 24.7656 11.8834 23.5167 13.1323L12.9634 23.6856C11.7144 24.9346 9.68947 24.9346 8.44052 23.6856L2.41007 17.6552C1.16112 16.4062 1.16112 14.3813 2.41007 13.1323ZM3.91768 14.6399C3.50137 15.0562 3.50137 15.7312 3.91768 16.1475L9.94814 22.178C10.3645 22.5943 11.0394 22.5943 11.4557 22.178L13.3403 20.2935L13.1717 19.7878C13.044 19.4047 13.1437 18.9824 13.4292 18.6969L18.5279 13.5982C18.8135 13.3127 19.2358 13.213 19.6189 13.3407L20.1245 13.5092L22.009 11.6247C22.4254 11.2084 22.4254 10.5334 22.009 10.1171L15.9786 4.08664C15.5623 3.67032 14.8873 3.67032 14.471 4.08664L3.91768 14.6399ZM16.3555 11.2478C16.98 10.6233 16.98 9.61085 16.3555 8.98638C15.731 8.36191 14.7186 8.36191 14.0941 8.98638C13.4696 9.61085 13.4696 10.6233 14.0941 11.2478C14.7186 11.8723 15.731 11.8723 16.3555 11.2478ZM11.0789 16.5244C11.7033 15.9 11.7033 14.8875 11.0789 14.263C10.4544 13.6386 9.44191 13.6386 8.81744 14.263C8.19297 14.8875 8.19297 15.9 8.81744 16.5244C9.44191 17.1489 10.4544 17.1489 11.0789 16.5244Z" fill="black"/>
</g>
</svg>
