<svg width="24" height="24" viewBox="0 0 24 24" fill="none" xmlns="http://www.w3.org/2000/svg">
<g id="skip_next_24px" filter="url(#filter0_dd)">
<path id="icon/av/skip_next_24px" fill-rule="evenodd" clip-rule="evenodd" d="M16 17V7C16 6.45 16.45 6 17 6C17.55 6 18 6.45 18 7V17C18 17.55 17.55 18 17 18C16.45 18 16 17.55 16 17ZM13.35 12.82L7.58 16.89C6.91 17.35 6 16.88 6 16.07V7.93C6 7.12 6.91 6.65 7.58 7.11L13.35 11.19C13.91 11.58 13.91 12.42 13.35 12.82Z" fill="url(#paint0_linear)"/>
</g>
<defs>
<filter id="filter0_dd" x="-1" y="-2" width="26" height="28" filterUnits="userSpaceOnUse" color-interpolation-filters="sRGB">
<feFlood flood-opacity="0" result="BackgroundImageFix"/>
<feColorMatrix in="SourceAlpha" type="matrix" values="0 0 0 0 0 0 0 0 0 0 0 0 0 0 0 0 0 0 127 0"/>
<feOffset dy="1"/>
<feGaussianBlur stdDeviation="0.5"/>
<feColorMatrix type="matrix" values="0 0 0 0 0.554366 0 0 0 0 0.566197 0 0 0 0 0.605634 0 0 0 1 0"/>
<feBlend mode="normal" in2="BackgroundImageFix" result="effect1_dropShadow"/>
<feColorMatrix in="SourceAlpha" type="matrix" values="0 0 0 0 0 0 0 0 0 0 0 0 0 0 0 0 0 0 127 0"/>
<feOffset dy="-1"/>
<feGaussianBlur stdDeviation="0.5"/>
<feColorMatrix type="matrix" values="0 0 0 0 0.356808 0 0 0 0 0.367512 0 0 0 0 0.403192 0 0 0 1 0"/>
<feBlend mode="normal" in2="effect1_dropShadow" result="effect2_dropShadow"/>
<feBlend mode="normal" in="SourceGraphic" in2="effect2_dropShadow" result="shape"/>
</filter>
<linearGradient id="paint0_linear" x1="12" y1="6" x2="12" y2="18" gradientUnits="userSpaceOnUse">
<stop stop-color="#35363C"/>
<stop offset="1" stop-color="#3E4046"/>
</linearGradient>
</defs>
</svg>
